<svg width="129" height="40" fill="none" xmlns="http://www.w3.org/2000/svg"><g clip-path="url(#clip0)"><path d="M44.837 11.426v1.54h-1.809v-1.64c0-1.54-.614-2.472-2.016-2.472-1.4 0-2.016.928-2.016 2.473v9.046c0 1.543.64 2.473 2.016 2.473 1.377 0 2.016-.928 2.016-2.473V18.15h1.809v2.127c0 2.592-1.23 4.303-3.886 4.303-2.655 0-3.858-1.711-3.858-4.303v-8.851c0-2.593 1.23-4.303 3.858-4.303 2.629 0 3.886 1.71 3.886 4.303zm5.01 12.983V9.029h-3.164V7.293h8.259V9.03h-3.185v15.38h-1.91zm7.003-12.983c0-2.617 1.303-4.303 3.932-4.303 2.628 0 3.957 1.686 3.957 4.303v8.85c0 2.593-1.304 4.304-3.957 4.304-2.654 0-3.933-1.711-3.933-4.303v-8.851zm1.89 8.947c0 1.574.665 2.473 2.035 2.473s2.034-.899 2.034-2.473v-9.046c0-1.54-.64-2.473-2.034-2.473-1.395 0-2.034.928-2.034 2.473v9.046zM70.096 9.03v15.379h-1.92V7.293h8.063V24.41h-1.917V9.029h-4.226zm22.796 2.396v.45c0 1.76-.712 3.03-2.116 3.545 1.451.488 2.116 1.798 2.116 3.52v1.35c0 2.591-1.23 4.302-3.885 4.302-2.656 0-3.859-1.71-3.859-4.303v-1.663h1.795v1.76c0 1.542.64 2.473 2.016 2.473s2.016-.9 2.016-2.617v-1.358c0-1.661-.764-2.543-2.213-2.543h-.811V14.63h.904c1.28 0 2.116-.856 2.116-2.347V11.5c0-1.76-.615-2.642-2.017-2.642-1.4 0-2.015.929-2.015 2.473v1.147h-1.77V11.4c0-2.617 1.204-4.272 3.842-4.272s3.88 1.705 3.88 4.297zm4.454 9.534l-.664 3.449h-1.77l3.295-17.116h2.776l3.295 17.116h-1.916l-.656-3.449h-4.36zm.247-1.625h3.842l-1.95-9.892-1.892 9.892zm13.491-3.165l-2.678 8.239h-1.994V7.293h1.697v12.763l1.598-4.946 2.679-7.823h2.14v17.115h-1.722v-13.61l-1.72 5.377zm2.138-12.366c0 1.49-1.008 2.397-2.654 2.397-1.645 0-2.605-.9-2.655-2.397h1.204c.075.953.638 1.248 1.451 1.248.814 0 1.4-.295 1.474-1.248h1.18zm11.23 20.58h-1.844l-2.852-13.62V24.41h-1.671V7.293h2.681l2.825 13.667 2.73-13.667H129V24.41h-1.808V10.643l-2.74 13.741z" fill="#000"/><path d="M29.85 0H14.512l1.101 5.704a5.851 5.851 0 00-1.905.247L12.562 0H8.435c.013.156.034.311.063.465l1.713 8.88c.294 1.538 1.117 2.303 2.468 2.044 1.15-.224 1.655-.96 1.619-2.09a1.152 1.152 0 01.845-.374c.38-.033.768 0 1.05.358.023 1.96-.994 3.392-3.19 3.822-2.577.48-4.188-.965-4.67-3.498L6.658.915A7.078 7.078 0 016.554 0H1.98C1.455 0 .95.207.58.577S0 1.447 0 1.969v27.723c0 .522.209 1.023.58 1.393.371.369.875.576 1.4.576h3.232c.08-.27.178-.536.291-.795l3.592-8.094c.486-1.093 1.13-1.895 1.934-2.35l-.065 1.197c-.03.498-.007.997.068 1.49-.059.106-.113.225-.165.333l-3.648 8.22h4.46l2.92-6.583c.51-1.151.465-2.1-.267-2.714a3.577 3.577 0 010-.467l.08-1.496h.026c2.427 1.066 2.938 3.132 1.873 5.524l-2.54 5.735H29.85c.525 0 1.028-.207 1.4-.576.371-.37.58-.87.58-1.393V1.969c0-.522-.209-1.023-.58-1.392A1.985 1.985 0 0029.85 0zM13.92 24.782l-.4.9c-1.32-.716-1.916-2.16-1.808-4.02l.183-5.084-.246-2.668a5.495 5.495 0 001.5-.088 8.08 8.08 0 00.385-.088l.226 2.525-.17 5.6c-.052.92.143 1.621.588 2.06a3.18 3.18 0 01-.258.863zM15.082 8.19c-1.218.108-1.808.9-1.826 2.154a1.36 1.36 0 01-.717.322c-.07.013-.14.022-.205.029a.988.988 0 01-.966-.385c.05-2.176 1.212-3.64 3.558-3.849 2.644-.224 4.093 1.329 4.328 3.935l.253 2.828c-.626.175-1.25.36-1.873.557l-.299-3.313c-.138-1.534-.856-2.401-2.253-2.278zm4.5 13.894c-.106 1.96-.934 3.372-2.486 3.883A5.533 5.533 0 0017.512 23c.082-.302.13-.611.144-.924l.163-2.95c.64.051 1.274.14 1.903.266l-.14 2.691zm1.13-9.377l5.15-2.404.469.992-5.147 2.405-.472-.993zm5.424 9.41l-4.972-2.762.538-.958 4.972 2.763-.538.958zm-4.615-5.575l-.03-1.097 5.687-.157.032 1.097-5.689.157z" fill="url(#paint0_linear)"/><path d="M37.894 30.938h.56c.031-.33.178-.64.414-.875a1.36 1.36 0 011.876.077c.243.297.37.673.355 1.056v.054c.016.385-.11.763-.355 1.061a1.219 1.219 0 01-.974.41 1.25 1.25 0 01-.92-.349 1.45 1.45 0 01-.403-.915h-.553v1.207h-.651v-2.882h.65v1.156zm1.206.312c-.01.24.047.477.166.686a.63.63 0 00.801.193.63.63 0 00.225-.193 1.26 1.26 0 00.165-.686v-.056c.008-.236-.05-.47-.17-.674a.567.567 0 00-.515-.268.563.563 0 00-.509.268 1.274 1.274 0 00-.167.674l.005.056zm5.143.07c.017.362-.088.719-.297 1.016a.988.988 0 01-.829.387 1.035 1.035 0 01-.436-.088.934.934 0 01-.328-.26v1.4h-.65v-3.993h.548l.066.362a.992.992 0 01.334-.31 1.04 1.04 0 011.293.317c.213.33.318.72.299 1.113v.056zm-.65-.059c.011-.25-.047-.5-.166-.721a.543.543 0 00-.5-.281.647.647 0 00-.346.087.636.636 0 00-.226.24v1.303a.609.609 0 00.226.224.69.69 0 00.353.081.557.557 0 00.495-.243 1.12 1.12 0 00.165-.64v-.05zm3.032-1.479h.648v2.884h-.648v-1.915h-.016l-1.13 1.92h-.649v-2.89h.649V31.7h.016l1.13-1.918zm1.365 2.368c.147-.159.265-.341.348-.54a2.7 2.7 0 00.133-.796l.03-1.025h2.013v2.36h.4l-.052 1.378h-.596v-.86h-1.858v.858h-.6l-.058-1.383.24.007zm1.13-1.336a3.53 3.53 0 01-.12.778 2.056 2.056 0 01-.253.562h1.116v-1.799h-.727l-.016.459zm4.082-1.032h.648v2.884h-.648v-1.915h-.016l-1.13 1.92h-.637v-2.89h.646V31.7h.018l1.119-1.918zm3.733 2.884h-.657V31.7a2.514 2.514 0 01-.534.058 1.348 1.348 0 01-.904-.274 1.034 1.034 0 01-.32-.823v-.884h.648v.884a.49.49 0 00.336.56c.076.024.157.03.236.015.09 0 .18-.004.27-.013.09-.01.177-.025.263-.047V29.78h.651l.011 2.886zm1.958.056a1.27 1.27 0 01-.983-.402 1.479 1.479 0 01-.366-1.03v-.107a1.527 1.527 0 01.363-1.044 1.144 1.144 0 01.904-.411 1.135 1.135 0 01.904.353c.22.265.332.601.315.944v.38h-1.81v.014a.896.896 0 00.204.562.637.637 0 00.515.224c.153.004.306-.017.452-.063.129-.044.25-.106.362-.184l.208.425a1.36 1.36 0 01-.434.245c-.204.069-.42.1-.635.094zm-.075-2.473a.498.498 0 00-.398.192.934.934 0 00-.192.483v.013h1.15v-.065a.698.698 0 00-.14-.45.52.52 0 00-.42-.175v.002zm2.968 1.951a.605.605 0 00.402-.136.452.452 0 00.163-.351h.59v.018a.846.846 0 01-.333.697 1.23 1.23 0 01-.827.294 1.211 1.211 0 01-.983-.411 1.569 1.569 0 01-.341-1.039v-.094a1.569 1.569 0 01.341-1.039 1.205 1.205 0 01.983-.411 1.19 1.19 0 01.848.303.972.972 0 01.314.77v.015h-.592a.572.572 0 00-.156-.402.54.54 0 00-.41-.167.554.554 0 00-.52.265c-.11.208-.163.44-.153.675v.092c-.01.234.044.467.154.674a.546.546 0 00.52.248zm2.732-.676h-.33v1.142h-.647v-2.884h.647v1.15h.291l.798-1.15h.807l-1.05 1.38 1.13 1.504h-.846l-.8-1.142zm3.738 1.142a2.178 2.178 0 01-.088-.433c-.09.138-.211.255-.352.341a.908.908 0 01-.489.138.968.968 0 01-.696-.225.842.842 0 01-.242-.637.75.75 0 01.333-.652c.281-.168.608-.246.935-.224h.507v-.252a.472.472 0 00-.134-.371.636.636 0 00-.737-.02.333.333 0 00-.13.274h-.629v-.016a.707.707 0 01.307-.607c.243-.184.543-.277.848-.263a1.25 1.25 0 01.818.256.899.899 0 01.31.736v1.283c0 .115.008.229.025.342.015.11.041.217.076.322l-.662.008zm-.797-.465a.823.823 0 00.451-.121.606.606 0 00.263-.281v-.425h-.518a.65.65 0 00-.452.14.424.424 0 00-.135.47.337.337 0 00.083.12c.09.071.203.106.317.097h-.01zm4.463-2.419v2.884h-.648v-1.059h-.609l-.619 1.06h-.678l.678-1.165a.903.903 0 01-.411-.32.86.86 0 01.17-1.142c.246-.184.55-.275.858-.258h1.26zm-1.772.94a.391.391 0 00.124.287.513.513 0 00.364.12h.635V30.3h-.6a.547.547 0 00-.39.126.395.395 0 00-.133.295zm4.95.802h-.332v1.142h-.649v-2.884h.649v1.15h.29l.797-1.15h.807l-1.051 1.38 1.13 1.504h-.845l-.796-1.142zm1.758-.328c-.015-.382.11-.757.353-1.054a1.357 1.357 0 011.507-.305c.167.07.32.174.446.305.244.296.37.671.355 1.054v.054c.016.385-.11.763-.355 1.061a1.356 1.356 0 01-1.507.306 1.355 1.355 0 01-.446-.306 1.568 1.568 0 01-.353-1.059v-.056zm.651.056c-.01.24.049.478.168.686a.625.625 0 00.798.193.624.624 0 00.223-.193 1.24 1.24 0 00.18-.688v-.056c.01-.237-.05-.47-.17-.674a.615.615 0 00-.8-.198.615.615 0 00-.222.198 1.27 1.27 0 00-.168.674l-.009.058zm4.308.598h.016l.85-2.068h.816v2.884h-.651V30.8h-.018l-.787 1.866h-.452l-.784-1.888h-.016v1.886h-.648v-2.882h.82l.854 2.068zm4.898.816h-.653v-2.365h-1.13v2.365h-.651v-2.884h2.434v2.884zm2.456 0a2.178 2.178 0 01-.088-.433 1.161 1.161 0 01-.352.341.907.907 0 01-.488.137.964.964 0 01-.697-.224.833.833 0 01-.241-.637.75.75 0 01.332-.652c.281-.168.608-.246.936-.224h.506v-.252a.467.467 0 00-.136-.355.53.53 0 00-.382-.129.543.543 0 00-.355.108.342.342 0 00-.13.275h-.627v-.016a.716.716 0 01.305-.607c.244-.184.545-.277.85-.263a1.24 1.24 0 01.816.256.9.9 0 01.312.735v1.284a2.124 2.124 0 00.102.663l-.663-.007zm-.8-.465a.824.824 0 00.453-.121.617.617 0 00.262-.281v-.425h-.518a.65.65 0 00-.452.14.426.426 0 00-.16.327.334.334 0 00.108.263.454.454 0 00.307.097zm4.501.465h-.658v-1.162h-1.13v1.162h-.653v-2.884h.653v1.203h1.13v-1.203h.653l.005 2.884zm2.506-2.884h.649v2.884h-.649v-1.915h-.016l-1.13 1.92h-.646v-2.89h.646V31.7h.018l1.128-1.918zm3.734 0v2.884h-.649v-1.059h-.599l-.62 1.06h-.677l.678-1.165a.903.903 0 01-.411-.32.831.831 0 01-.143-.478.815.815 0 01.314-.663 1.32 1.32 0 01.862-.26h1.245zm-1.772.94a.382.382 0 00.124.287.51.51 0 00.364.12h.635V30.3h-.599a.552.552 0 00-.39.126.395.395 0 00-.134.295zm-57.663 9.224h-.653v-2.365h-1.13v2.365h-.651v-2.884h2.434v2.884zm.592-1.471c-.015-.382.11-.757.353-1.054a1.357 1.357 0 011.506-.305c.168.07.32.175.446.305.245.296.372.672.355 1.054v.057a1.56 1.56 0 01-.355 1.06 1.357 1.357 0 01-1.506.306 1.357 1.357 0 01-.446-.305 1.568 1.568 0 01-.353-1.059v-.059zm.65.057c-.009.24.05.477.168.685a.557.557 0 00.513.264.568.568 0 00.511-.264c.12-.207.18-.445.17-.685v-.056a1.24 1.24 0 00-.17-.675.565.565 0 00-.515-.27.557.557 0 00-.509.27 1.265 1.265 0 00-.167.674v.057zm4.313.598h.016l.85-2.069h.816v2.885h-.654v-1.877h-.015l-.785 1.88h-.452l-.784-1.89h-.016v1.887h-.648v-2.884h.82l.852 2.068zm2.344-.655c-.015-.382.11-.757.353-1.054a1.357 1.357 0 011.507-.305c.167.07.319.175.446.305.245.296.37.672.354 1.054v.057c.017.385-.11.762-.354 1.06a1.357 1.357 0 01-1.507.306 1.357 1.357 0 01-.446-.305 1.569 1.569 0 01-.353-1.059v-.059zm.651.057c-.01.24.047.477.165.685a.627.627 0 00.8.194.628.628 0 00.224-.194 1.24 1.24 0 00.172-.685v-.056a1.223 1.223 0 00-.172-.675.617.617 0 00-.802-.198.618.618 0 00-.222.198 1.265 1.265 0 00-.165.674v.057zm4.513-.952h-1.256v2.366h-.651v-2.884h1.908v.519zm2.159 2.366a2.333 2.333 0 01-.059-.225 1.672 1.672 0 01-.03-.209 1.154 1.154 0 01-.352.34.908.908 0 01-.49.137.961.961 0 01-.694-.225.834.834 0 01-.244-.636.75.75 0 01.332-.652c.282-.168.61-.247.938-.225h.504v-.256a.47.47 0 00-.134-.355.533.533 0 00-.382-.129.556.556 0 00-.354.106.345.345 0 00-.131.277h-.629v-.018a.707.707 0 01.305-.605c.243-.184.543-.277.848-.263a1.24 1.24 0 01.818.256.9.9 0 01.312.735v1.282c0 .115.007.23.023.344.016.11.043.217.079.321h-.66zm-.798-.465a.825.825 0 00.452-.122.622.622 0 00.26-.28v-.428h-.525a.649.649 0 00-.451.142.425.425 0 00-.136.472.34.34 0 00.084.12c.089.07.202.105.316.096zm3.307.519a1.266 1.266 0 01-.984-.4 1.47 1.47 0 01-.366-1.03v-.108c-.013-.38.117-.752.364-1.043a1.143 1.143 0 01.904-.411 1.135 1.135 0 01.904.353c.219.266.33.603.312.946v.382h-1.808v.014c0 .204.071.402.201.56a.636.636 0 00.515.224 1.39 1.39 0 00.453-.063c.128-.044.25-.106.361-.184l.208.425c-.128.108-.275.19-.434.243-.203.068-.416.1-.63.092zm-.077-2.473a.488.488 0 00-.396.191.947.947 0 00-.194.483v.014h1.15v-.068a.686.686 0 00-.142-.45.513.513 0 00-.41-.17h-.008zm3.48 1.603h.016l.85-2.069h.816v2.885h-.651v-1.877h-.018l-.784 1.88h-.452l-.785-1.89h-.015v1.887h-.64v-2.884h.82l.843 2.068zm5.063.35a.596.596 0 00.403-.139.451.451 0 00.162-.348h.59v.015a.853.853 0 01-.33.7c-.23.195-.526.3-.83.292a1.209 1.209 0 01-.983-.41 1.569 1.569 0 01-.34-1.04v-.092a1.569 1.569 0 01.34-1.04 1.36 1.36 0 011.831-.11.977.977 0 01.314.772v.016h-.583a.552.552 0 00-.158-.403.534.534 0 00-.407-.166.55.55 0 00-.52.265c-.11.207-.163.44-.153.675v.094c-.01.234.043.467.153.675a.55.55 0 00.511.245zm5.656.466h-2.595v-.45l1.27-1.378c.164-.168.307-.354.427-.555a.878.878 0 00.12-.425.643.643 0 00-.154-.436.518.518 0 00-.414-.178.637.637 0 00-.508.194.78.78 0 00-.167.528h-.629v-.018a1.119 1.119 0 01.34-.87 1.31 1.31 0 01.969-.353c.326-.017.646.094.89.31a1.06 1.06 0 01.326.807c0 .226-.065.447-.188.636a5.214 5.214 0 01-.585.74l-.868.9v.015h1.758l.007.533zm3.106-1.502c.03.414-.093.824-.343 1.156a1.3 1.3 0 01-1.444.293 1.3 1.3 0 01-.427-.293 1.71 1.71 0 01-.344-1.156v-.899a1.729 1.729 0 01.341-1.153 1.287 1.287 0 01.936-.4 1.294 1.294 0 01.936.4c.25.33.374.74.346 1.153v.9zm-.65-.986a1.25 1.25 0 00-.16-.706.537.537 0 00-.471-.225.536.536 0 00-.468.225c-.122.214-.177.46-.16.706v1.079a1.25 1.25 0 00.162.71.537.537 0 00.47.225.528.528 0 00.466-.225 1.25 1.25 0 00.16-.71v-1.08zm3.801.986a1.72 1.72 0 01-.341 1.156 1.3 1.3 0 01-1.444.292 1.3 1.3 0 01-.427-.292 1.711 1.711 0 01-.346-1.156v-.899a1.729 1.729 0 01.343-1.153 1.285 1.285 0 011.444-.296c.16.068.305.17.425.296.251.33.374.74.346 1.153v.9zm-.65-.987a1.25 1.25 0 00-.161-.706.588.588 0 00-.729-.168.588.588 0 00-.207.168 1.23 1.23 0 00-.16.706v1.08c-.018.247.039.494.162.71a.537.537 0 00.47.225.529.529 0 00.466-.225c.122-.216.177-.463.158-.71v-1.08zm2.011.255h.452a.588.588 0 00.452-.156.647.647 0 00.14-.45.59.59 0 00-.151-.431.584.584 0 00-.452-.155.63.63 0 00-.432.15.514.514 0 00-.167.398h-.628v-.017a.895.895 0 01.332-.747c.25-.208.567-.316.892-.303a1.36 1.36 0 01.905.287 1.022 1.022 0 01.34.819.867.867 0 01-.153.48.996.996 0 01-.434.36.944.944 0 01.49.358.996.996 0 01.157.546 1.022 1.022 0 01-.371.839 1.589 1.589 0 01-1.849.018.91.91 0 01-.355-.794v-.016h.626a.538.538 0 00.174.416.655.655 0 00.464.16.68.68 0 00.479-.162.602.602 0 00.174-.45.642.642 0 00-.16-.48.68.68 0 00-.495-.158h-.453l.023-.512zm5.752-.132h-1.256v2.366h-.651v-2.884H84.9v.519zm1.128 2.366h-.649v-.623h.65v.623z" fill="#000"/></g><defs><linearGradient id="paint0_linear" x1=".579" y1="31.086" x2="31.088" y2=".416" gradientUnits="userSpaceOnUse"><stop stop-color="#E04136"/><stop offset="1" stop-color="#F0AA42"/></linearGradient><clipPath id="clip0"><path fill="#fff" d="M0 0h129v40H0z"/></clipPath></defs></svg>